<?xml version="1.0" standalone="no"?>
<!DOCTYPE svg PUBLIC "-//W3C//DTD SVG 20010904//EN"
 "http://www.w3.org/TR/2001/REC-SVG-20010904/DTD/svg10.dtd">
<svg version="1.0" xmlns="http://www.w3.org/2000/svg"
 width="1992.000000pt" height="1992.000000pt" viewBox="0 0 1992.000000 1992.000000"
 preserveAspectRatio="xMidYMid meet">
<metadata>
Created by potrace 1.11, written by Peter Selinger 2001-2013
</metadata>
<g transform="translate(0.000000,1992.000000) scale(0.100000,-0.100000)"
fill="#000000" stroke="none">
<path d="M9389 19916 c-2 -2 -53 -7 -114 -10 -60 -3 -128 -8 -150 -11 -22 -3
-67 -7 -100 -10 -63 -5 -134 -12 -200 -20 -22 -2 -62 -7 -90 -10 -67 -8 -264
-36 -355 -50 -19 -3 -48 -8 -65 -10 -16 -3 -41 -7 -55 -10 -14 -2 -41 -7 -60
-10 -19 -3 -66 -12 -105 -20 -38 -8 -86 -17 -105 -20 -19 -3 -73 -15 -120 -25
-47 -10 -98 -21 -115 -25 -16 -3 -118 -28 -225 -55 -107 -28 -206 -53 -220
-55 -14 -3 -36 -10 -50 -15 -14 -5 -79 -25 -145 -44 -66 -19 -178 -54 -250
-77 -71 -24 -132 -43 -135 -44 -3 0 -32 -10 -65 -22 -265 -98 -394 -147 -420
-158 -16 -8 -68 -29 -115 -48 -47 -19 -110 -46 -140 -60 -30 -14 -71 -31 -90
-39 -146 -61 -721 -348 -775 -388 -5 -4 -46 -26 -90 -50 -44 -23 -87 -48 -95
-55 -8 -6 -52 -33 -98 -59 -122 -69 -407 -254 -571 -369 -79 -56 -153 -109
-165 -117 -132 -91 -613 -472 -656 -520 -3 -3 -23 -20 -45 -39 -244 -208 -602
-559 -845 -831 -47 -52 -87 -97 -90 -100 -3 -3 -30 -34 -60 -70 -30 -36 -58
-67 -61 -70 -8 -7 -188 -227 -219 -269 -14 -18 -30 -38 -36 -44 -6 -7 -67 -88
-137 -182 -69 -93 -130 -174 -134 -180 -14 -16 -305 -458 -344 -521 -55 -89
-152 -252 -189 -319 -18 -33 -42 -76 -53 -95 -103 -182 -387 -750 -387 -775 0
-2 -13 -32 -29 -67 -183 -396 -463 -1224 -537 -1582 -2 -10 -8 -33 -13 -50
-61 -204 -177 -859 -216 -1221 -3 -27 -8 -65 -11 -84 -2 -19 -7 -67 -10 -105
-3 -39 -7 -87 -9 -106 -28 -259 -28 -1540 0 -1675 3 -11 7 -56 10 -100 3 -44
7 -91 9 -105 3 -14 7 -52 10 -85 5 -55 11 -103 21 -180 7 -53 36 -249 41 -280
3 -16 7 -41 9 -55 5 -41 25 -152 35 -200 5 -25 12 -58 15 -75 10 -64 66 -316
100 -455 19 -80 37 -153 40 -163 22 -95 121 -425 180 -602 84 -253 138 -399
229 -621 87 -214 99 -242 183 -424 42 -91 231 -471 261 -525 16 -28 48 -86 72
-130 24 -44 70 -124 102 -178 32 -54 58 -99 58 -102 0 -11 382 -600 400 -615
3 -3 34 -45 70 -95 77 -108 241 -328 250 -335 3 -3 53 -63 110 -135 57 -71
118 -146 136 -165 17 -19 68 -78 114 -130 156 -179 576 -613 686 -707 12 -10
61 -55 110 -99 766 -701 1715 -1315 2699 -1744 22 -10 60 -27 85 -38 314 -138
959 -364 1235 -431 22 -5 80 -21 128 -35 49 -14 100 -27 115 -30 15 -3 65 -14
112 -26 95 -23 485 -105 543 -114 20 -3 54 -8 75 -11 20 -3 60 -10 87 -15 28
-5 113 -18 190 -29 134 -19 176 -24 283 -36 26 -3 61 -8 77 -10 17 -3 64 -7
107 -10 42 -3 91 -8 110 -10 116 -15 330 -20 833 -20 497 0 668 4 840 20 22 3
72 7 111 9 38 3 86 8 105 10 19 3 55 8 82 11 26 3 68 7 95 10 47 6 95 12 142
19 32 5 117 17 154 22 16 2 70 10 120 19 50 9 105 18 121 21 113 19 444 89
565 119 58 14 116 28 130 31 14 3 56 14 95 25 38 11 80 22 92 25 34 7 315 91
448 135 358 116 752 271 1095 430 121 56 487 240 555 279 22 13 74 41 115 63
149 80 437 256 625 380 191 127 515 359 640 459 29 23 216 175 250 203 155
128 350 301 489 435 295 285 462 461 745 788 95 110 225 273 344 432 64 85
132 175 150 200 134 177 469 704 612 963 104 189 284 545 353 697 211 469 453
1130 536 1465 8 33 31 118 50 189 19 71 37 140 40 155 4 21 30 137 62 276 9
38 34 170 40 205 3 19 9 51 14 70 5 19 14 70 20 113 6 43 13 88 15 100 7 36
43 299 50 352 7 65 15 133 20 170 2 17 7 68 10 115 3 47 8 94 10 105 28 132
28 1456 1 1670 -2 17 -7 66 -10 110 -4 44 -8 91 -11 105 -2 14 -7 52 -10 85
-6 62 -14 131 -21 175 -2 14 -8 59 -14 101 -6 41 -12 84 -14 95 -2 10 -7 39
-10 64 -3 25 -8 54 -10 65 -2 11 -9 54 -16 95 -6 41 -15 91 -20 110 -5 19 -11
53 -15 75 -3 22 -7 47 -10 55 -2 8 -6 26 -9 40 -14 75 -50 237 -72 325 -14 55
-27 107 -29 115 -106 453 -355 1172 -561 1618 -20 42 -42 93 -51 112 -94 212
-301 609 -447 855 -120 204 -141 236 -302 479 -126 191 -433 619 -464 646 -3
3 -52 64 -110 135 -57 72 -116 144 -131 160 -14 17 -66 75 -114 130 -214 244
-581 615 -811 820 -6 6 -47 43 -92 84 -45 40 -150 129 -234 198 -84 69 -162
132 -173 141 -11 10 -85 66 -165 125 -80 60 -153 115 -163 123 -114 91 -591
402 -827 539 -140 81 -135 78 -345 192 -121 66 -485 244 -620 303 -66 29 -142
63 -170 75 -208 93 -777 296 -1065 380 -155 45 -485 132 -570 150 -8 2 -51 11
-95 20 -44 9 -96 20 -115 25 -19 5 -71 16 -115 24 -44 8 -93 17 -110 21 -63
12 -131 24 -165 30 -137 20 -232 34 -275 40 -27 3 -57 8 -65 10 -8 2 -44 7
-80 10 -36 3 -78 8 -95 10 -52 6 -138 16 -185 20 -61 5 -174 16 -235 22 -64 6
-1280 15 -1286 9z m1116 -20 c44 -3 116 -9 160 -12 44 -3 107 -7 140 -10 75
-5 278 -26 380 -39 47 -6 175 -24 223 -30 18 -3 54 -8 80 -11 25 -3 48 -7 51
-9 3 -2 31 -6 61 -10 30 -3 62 -8 70 -10 8 -3 76 -16 150 -30 152 -29 139 -27
298 -61 64 -14 153 -34 197 -45 44 -12 87 -22 95 -24 8 -2 42 -10 75 -19 33
-9 67 -18 75 -20 297 -73 819 -251 1195 -406 267 -110 655 -293 858 -403 37
-20 95 -52 130 -71 34 -18 103 -57 152 -86 50 -29 110 -63 135 -77 42 -24 99
-58 230 -141 228 -144 727 -494 807 -566 6 -6 26 -22 44 -36 40 -30 309 -250
325 -265 6 -5 41 -37 79 -70 223 -195 523 -486 725 -705 58 -63 116 -125 129
-139 49 -52 267 -309 362 -428 169 -212 466 -616 514 -701 6 -10 36 -58 69
-107 32 -50 69 -106 81 -125 33 -50 195 -324 235 -395 18 -33 42 -76 53 -95
104 -185 294 -568 363 -733 14 -32 38 -88 55 -125 75 -162 266 -667 315 -827
22 -74 20 -67 27 -85 7 -19 57 -185 97 -323 36 -126 101 -384 131 -523 11 -53
23 -106 25 -118 6 -25 9 -42 34 -166 10 -52 21 -111 24 -130 3 -19 8 -44 10
-55 2 -11 7 -42 10 -68 4 -27 9 -56 10 -65 13 -70 16 -91 20 -122 3 -19 10
-69 15 -110 6 -41 13 -97 17 -125 3 -27 7 -61 9 -75 4 -27 31 -312 39 -420 28
-355 29 -1025 1 -1415 -8 -124 -16 -223 -20 -245 -2 -14 -6 -61 -10 -105 -4
-44 -9 -88 -10 -97 -2 -9 -6 -43 -10 -75 -3 -32 -8 -74 -11 -93 -2 -19 -7 -51
-9 -70 -17 -122 -80 -488 -105 -610 -17 -80 -33 -156 -36 -170 -49 -245 -171
-683 -279 -1005 -80 -240 -208 -577 -266 -702 -10 -24 -19 -45 -19 -48 0 -5
-32 -76 -96 -213 -24 -51 -44 -96 -44 -99 0 -12 -223 -449 -290 -568 -13 -22
-36 -65 -52 -95 -82 -150 -442 -724 -500 -795 -5 -5 -61 -82 -125 -170 -100
-138 -276 -370 -293 -385 -3 -3 -23 -27 -45 -55 -34 -43 -93 -113 -203 -240
-254 -295 -696 -737 -977 -976 -22 -19 -42 -37 -45 -40 -14 -15 -260 -216
-375 -305 -386 -300 -867 -620 -1235 -822 -30 -16 -98 -53 -150 -82 -199 -109
-498 -256 -720 -352 -63 -27 -128 -55 -145 -63 -98 -44 -374 -150 -535 -207
-136 -47 -294 -100 -310 -103 -8 -2 -35 -10 -60 -18 -74 -25 -239 -74 -340
-101 -98 -26 -293 -76 -320 -81 -8 -2 -55 -12 -105 -24 -49 -11 -101 -22 -115
-24 -14 -3 -72 -15 -130 -26 -140 -28 -141 -29 -245 -46 -173 -30 -201 -34
-285 -45 -47 -6 -98 -13 -114 -16 -16 -3 -48 -7 -70 -9 -23 -2 -59 -6 -81 -9
-22 -2 -69 -8 -105 -11 -36 -4 -76 -9 -90 -10 -15 -2 -69 -6 -121 -10 -53 -3
-109 -8 -125 -10 -230 -26 -1115 -27 -1414 0 -19 1 -73 6 -120 10 -122 10
-207 18 -305 30 -16 2 -59 7 -95 10 -35 4 -73 9 -85 11 -11 2 -40 7 -65 10
-25 3 -99 14 -165 25 -66 11 -136 22 -155 25 -19 3 -60 10 -90 15 -30 6 -68
13 -85 16 -69 11 -569 122 -595 131 -8 3 -20 6 -27 8 -12 2 -82 22 -273 76
-159 45 -441 135 -495 158 -11 4 -74 27 -140 50 -66 22 -129 45 -140 50 -11 5
-67 28 -125 50 -58 22 -114 45 -125 50 -11 5 -69 30 -130 55 -223 95 -580 266
-760 365 -33 18 -89 48 -125 68 -36 19 -69 38 -75 42 -5 4 -30 19 -55 33 -100
56 -227 130 -252 148 -14 11 -31 19 -37 19 -6 0 -11 5 -11 10 0 6 -4 10 -9 10
-22 0 -457 294 -670 452 -153 114 -373 287 -451 354 -14 12 -47 41 -75 64
-304 256 -687 630 -976 954 -24 27 -60 68 -81 90 -188 210 -439 531 -645 826
-67 96 -127 180 -133 187 -5 7 -10 14 -10 17 0 3 -18 31 -39 63 -49 73 -132
202 -146 228 -6 11 -23 38 -37 60 -144 229 -388 687 -526 990 -27 61 -61 135
-75 165 -14 30 -60 141 -102 245 -42 105 -80 199 -85 210 -13 32 -91 244 -95
260 -1 6 -5 17 -8 25 -10 24 -117 352 -122 375 -2 11 -20 74 -40 140 -35 119
-127 472 -144 556 -61 301 -93 468 -117 624 -3 17 -9 55 -14 85 -5 30 -12 78
-15 105 -3 28 -8 57 -10 65 -2 8 -6 45 -10 82 -3 37 -8 77 -10 90 -2 13 -7 55
-10 93 -4 39 -9 84 -10 100 -2 17 -6 68 -10 115 -4 47 -8 101 -10 120 -13 151
-19 381 -20 705 0 374 8 607 30 838 2 31 7 85 10 120 3 34 7 73 10 87 2 14 7
57 10 95 3 39 8 81 10 95 9 58 14 98 20 145 3 28 22 145 41 260 43 262 41 251
60 338 8 39 18 83 20 97 12 58 46 211 65 285 12 44 22 87 24 95 17 81 128 465
189 650 83 255 219 620 276 745 5 11 36 81 69 155 103 236 239 516 330 685
127 231 223 397 330 568 20 32 41 66 46 75 20 32 163 247 234 351 164 237 403
547 596 771 49 58 99 115 110 128 11 13 31 36 45 51 14 15 68 74 120 131 192
209 526 535 740 720 35 30 68 60 74 65 32 31 268 224 383 312 1003 779 2116
1347 3326 1699 198 57 555 148 621 158 21 4 41 8 45 11 4 2 18 6 32 9 105 20
314 59 359 67 30 5 64 11 75 13 18 3 71 12 135 21 14 2 39 6 55 9 39 6 176 24
240 31 28 3 60 8 72 10 12 2 57 6 100 10 43 4 88 8 101 10 21 4 122 12 237 20
28 2 115 7 195 11 80 3 147 8 149 10 6 5 819 -4 906 -10z"/>
<path d="M5769 14128 c-175 -72 -259 -227 -224 -416 17 -92 42 -121 593 -670
486 -486 541 -537 598 -563 265 -120 550 103 500 391 -4 19 -20 62 -36 95 -25
52 -101 132 -562 592 -602 601 -581 584 -733 590 -65 2 -91 -1 -136 -19z"/>
<path d="M13933 14131 c-29 -10 -69 -29 -90 -44 -21 -15 -273 -262 -559 -549
-552 -553 -564 -567 -580 -673 -11 -77 -11 -86 4 -145 19 -73 36 -104 90 -163
114 -121 293 -147 437 -63 72 42 1098 1072 1129 1134 40 79 49 158 29 247 -47
204 -263 325 -460 256z"/>
<path d="M9818 13935 c-2 -1 -28 -5 -58 -9 -282 -31 -548 -175 -735 -396 -283
-335 -348 -827 -160 -1211 l33 -67 -77 -22 c-805 -231 -1465 -642 -2021 -1256
-134 -147 -370 -469 -469 -639 -82 -140 -161 -291 -211 -405 -23 -52 -50 -113
-60 -135 -34 -76 -114 -302 -149 -421 -23 -77 -74 -284 -87 -349 -4 -22 -8
-42 -9 -45 -3 -12 -16 -88 -20 -120 -3 -19 -6 -44 -9 -55 -7 -36 -24 -186 -32
-280 -10 -125 -12 -364 -3 -403 35 -157 162 -267 323 -279 39 -3 87 -1 106 4
21 6 47 6 65 1 17 -5 732 -10 1660 -11 l1630 -2 0 -390 0 -390 -1870 -5 -1870
-5 -58 -30 c-186 -93 -256 -323 -154 -498 15 -25 27 -47 27 -49 0 -2 -44 -3
-97 -3 -54 1 -120 -3 -148 -8 -78 -14 -162 -64 -210 -124 -155 -198 -79 -474
155 -562 l55 -21 4545 2 4545 3 48 24 c160 79 237 235 202 406 -23 106 -95
198 -192 242 -69 32 -94 36 -225 37 -60 1 -108 2 -108 3 0 0 12 25 27 53 96
185 29 402 -150 489 -34 17 -75 33 -92 36 -16 2 -859 5 -1871 5 l-1842 0 0
390 c0 354 1 390 16 394 10 2 802 4 1762 4 960 0 1756 2 1770 5 135 26 233
107 282 233 25 62 25 198 2 236 -3 5 -7 43 -10 86 -5 114 -20 280 -30 342 -3
19 -8 51 -10 70 -4 31 -11 73 -30 175 -88 483 -303 1022 -577 1450 -321 501
-733 920 -1222 1245 -357 237 -740 415 -1152 535 l-131 38 24 43 c27 48 89
229 98 284 27 165 27 261 1 430 -9 61 -71 246 -99 295 -12 22 -33 57 -45 78
-159 278 -483 495 -811 542 -44 7 -267 14 -272 10z m252 -741 c133 -53 229
-160 265 -295 12 -46 13 -149 0 -204 -19 -91 -108 -207 -195 -257 -167 -97
-403 -71 -534 59 -208 204 -161 536 94 672 32 17 75 35 96 40 63 15 223 6 274
-15z m-5 -1539 c141 -5 169 -8 305 -25 253 -34 633 -136 835 -225 17 -7 59
-26 95 -41 309 -136 609 -328 880 -563 72 -63 242 -230 305 -302 344 -386 610
-872 751 -1372 25 -89 67 -279 79 -352 17 -114 25 -172 25 -195 l0 -26 -3431
0 -3431 0 7 63 c7 73 9 85 35 223 26 139 25 134 49 223 196 745 638 1413 1236
1871 55 42 105 80 110 84 34 27 175 117 258 166 336 197 700 335 1092 415 98
20 126 24 235 36 30 3 64 8 75 10 11 2 85 7 165 11 80 4 146 8 148 9 2 2 11 1
20 0 9 -2 80 -6 157 -10z"/>
<path d="M4000 12083 c-106 -27 -188 -94 -237 -192 -24 -49 -27 -68 -28 -151
0 -82 4 -103 26 -150 29 -61 86 -126 139 -157 39 -23 100 -45 365 -128 171
-54 232 -73 560 -178 473 -152 560 -177 596 -172 7 1 35 5 61 8 108 13 215 95
266 205 23 49 27 70 27 147 -1 78 -5 98 -30 149 -31 66 -98 137 -154 165 -20
10 -200 71 -401 134 -201 64 -466 148 -590 187 -124 39 -273 87 -331 105 -128
40 -195 48 -269 28z"/>
<path d="M15785 12088 c-35 -8 -257 -75 -370 -113 -53 -18 -246 -80 -470 -150
-99 -31 -191 -60 -205 -65 -14 -5 -99 -32 -190 -60 -196 -62 -224 -75 -285
-136 -69 -67 -98 -139 -101 -244 -2 -74 1 -93 26 -146 50 -111 134 -181 247
-207 81 -19 134 -13 281 34 70 22 161 51 202 64 41 13 147 47 235 75 88 28
203 65 255 81 628 197 636 201 709 278 19 20 46 61 60 91 22 47 26 68 26 150
0 87 -3 100 -32 155 -75 146 -236 225 -388 193z"/>
<path d="M4085 9790 l-280 -5 -60 -29 c-131 -63 -207 -182 -208 -326 0 -102
28 -174 97 -244 109 -112 125 -115 624 -111 782 7 741 5 804 25 96 30 167 93
216 190 24 48 27 67 27 150 0 83 -3 102 -27 150 -37 75 -100 137 -178 174
l-65 30 -335 1 c-184 0 -461 -2 -615 -5z"/>
<path d="M14886 9783 c-98 -29 -178 -98 -224 -193 -23 -48 -27 -67 -27 -150 0
-82 4 -103 26 -150 45 -94 120 -160 218 -190 63 -20 84 -21 811 -23 l445 -2
57 27 c68 32 146 106 176 169 110 228 -37 489 -291 514 -28 3 -297 7 -597 9
-452 3 -553 1 -594 -11z"/>
</g>
</svg>
